<svg width="38" height="38" viewBox="0 0 38 38" fill="none" xmlns="http://www.w3.org/2000/svg">
<path d="M14.2454 1.19214C7.04521 1.19214 1.18287 7.05219 1.18286 14.2523C1.18287 21.4525 7.04521 27.3148 14.2454 27.3148C17.4207 27.3148 20.333 26.1732 22.5996 24.2811L34.7831 36.4669C35.9051 37.589 37.589 35.9051 36.4669 34.7831L24.2811 22.5973C26.1676 20.3323 27.3055 17.4225 27.3055 14.2523C27.3055 7.05219 21.4455 1.19214 14.2454 1.19214ZM14.2454 3.56714C20.162 3.56718 24.9305 8.33572 24.9305 14.2523C24.9305 20.169 20.162 24.9398 14.2454 24.9398C8.32876 24.9398 3.55787 20.169 3.55786 14.2523C3.55787 8.33572 8.32876 3.56718 14.2454 3.56714Z" fill="black"/>
</svg>
