<svg viewBox="0 0 32 32" xml:space="preserve" xmlns="http://www.w3.org/2000/svg" enable-background="new 0 0 32 32"><path d="M17.447 16.646C17.08 16.279 16.729 16 16 16s-1.135.334-1.463.662L10.58 20.62c-.387.386-.58.849-.58 1.38 0 1.188 1.016 2 2 2 .516 0 .986-.186 1.38-.58l.62-.62V30a2 2 0 0 0 4 0v-7.2l.62.62c.394.394.864.58 1.38.58.984 0 2-.813 2-2 0-.531-.193-.994-.58-1.38l-3.973-3.974zM27.952 9.05C27.473 3.973 23.202 0 18 0c-4.841 0-8.878 3.441-9.801 8.01C8.133 8.008 8.067 8 8 8a8 8 0 0 0 0 16h.557A3.953 3.953 0 0 1 8 22c0-.727.201-1.399.562-2H8c-2.206 0-4-1.795-4-4a4.005 4.005 0 0 1 3.918-4l3.534.107.668-3.305A6.013 6.013 0 0 1 18 4a5.968 5.968 0 0 1 5.97 5.426l.195 2.069 1.806 1.03A4.012 4.012 0 0 1 28 16c0 2.205-1.794 4-4 4h-.561c.36.6.561 1.273.561 2 0 .731-.212 1.409-.557 2H24a8 8 0 0 0 8-8 7.994 7.994 0 0 0-4.048-6.95z" fill="#ffffff" class="fill-000000"></path></svg>